<svg width="135" height="40" viewBox="0 0 135 40" fill="none" xmlns="http://www.w3.org/2000/svg">
<path d="M124.249 -0.000114141H10.7559C10.3422 -0.000114141 9.93347 -0.000114141 9.52087 0.00188586C9.17548 0.00388586 8.83285 0.00969586 8.48415 0.0145859C7.7266 0.0224877 6.97084 0.0815621 6.22343 0.191296C5.47707 0.303418 4.75408 0.514802 4.07894 0.818296C3.40461 1.12436 2.78846 1.52205 2.25284 1.99696C1.71441 2.47052 1.26558 3.0179 0.923624 3.61805C0.580721 4.21699 0.34295 4.85882 0.218525 5.52137C0.092917 6.18307 0.0253262 6.85241 0.0163592 7.52337C0.00588987 7.82997 0.00478427 8.13759 -0.000732422 8.44423V31.5585C0.00478427 31.869 0.00588987 32.1698 0.0163592 32.4804C0.025329 33.1513 0.0929198 33.8206 0.218525 34.4823C0.342607 35.1452 0.580391 35.7874 0.923624 36.3866C1.26543 36.9848 1.71432 37.53 2.25284 38.0009C2.78643 38.4779 3.40298 38.8759 4.07894 39.1796C4.75408 39.4839 5.47698 39.6965 6.22343 39.8104C6.97097 39.9192 7.72665 39.9783 8.48415 39.9872C8.83285 39.994 9.17548 39.9979 9.52087 39.9979C9.93346 39.9999 10.3422 39.9999 10.7559 39.9999H124.249C124.654 39.9999 125.066 39.9999 125.472 39.9979C125.815 39.9979 126.168 39.994 126.512 39.9872C127.268 39.9788 128.022 39.9197 128.768 39.8104C129.517 39.6957 130.242 39.4831 130.921 39.1796C131.596 38.8757 132.212 38.4777 132.745 38.0009C133.282 37.5281 133.732 36.9833 134.078 36.3866C134.419 35.787 134.654 35.1448 134.777 34.4823C134.902 33.8205 134.972 33.1514 134.986 32.4804C134.99 32.1698 134.99 31.869 134.99 31.5585C134.999 31.1952 134.999 30.8339 134.999 30.4647V9.53602C134.999 9.16981 134.999 8.80653 134.99 8.44423C134.99 8.13759 134.99 7.82997 134.986 7.52333C134.972 6.85231 134.902 6.18312 134.777 5.52133C134.654 4.85917 134.419 4.21739 134.078 3.61801C133.382 2.41508 132.278 1.43591 130.921 0.818206C130.242 0.515453 129.517 0.304126 128.768 0.191206C128.022 0.0809886 127.268 0.0218936 126.512 0.0144459C126.168 0.00956586 125.815 0.00370586 125.472 0.00175586C125.066 -0.000244141 124.654 -0.000244141 124.249 -0.000244141V-0.000114141Z" fill="#1D1D1D"/>
<path d="M9.42928 39.1279C9.08496 39.1279 8.74895 39.124 8.40733 39.1172C7.69964 39.109 6.9936 39.0545 6.29501 38.954C5.6436 38.8547 5.01257 38.67 4.42271 38.406C3.83827 38.1442 3.30521 37.8009 2.84396 37.3892C2.37602 36.9824 1.98645 36.5106 1.69067 35.9924C1.39163 35.4709 1.18468 34.9119 1.07702 34.3349C0.960762 33.7149 0.89786 33.0879 0.888859 32.4595C0.881694 32.2485 0.872314 31.5462 0.872314 31.5462V8.44079C0.872314 8.44079 0.882305 7.74924 0.888916 7.54607C0.897534 6.91862 0.96007 6.29266 1.07598 5.67361C1.18384 5.09501 1.39095 4.53439 1.69015 4.01116C1.98484 3.49336 2.37225 3.02118 2.83737 2.61292C3.30196 2.20077 3.83672 1.85568 4.42216 1.59023C5.01066 1.32706 5.6405 1.14366 6.29059 1.04618C6.99148 0.944725 7.69997 0.889873 8.41011 0.882086L9.42983 0.869873H125.569L126.601 0.882576C127.305 0.889976 128.007 0.944339 128.701 1.0452C129.358 1.14391 129.994 1.32858 130.59 1.59316C131.762 2.12812 132.717 2.97448 133.319 4.0136C133.613 4.53322 133.817 5.08926 133.924 5.66286C134.041 6.287 134.107 6.91788 134.12 7.55047C134.123 7.83373 134.123 8.13799 134.123 8.44079C134.132 8.81587 134.132 9.17288 134.132 9.53281V30.4659C134.132 30.8292 134.132 31.1838 134.123 31.5413C134.123 31.8666 134.123 32.1645 134.119 32.4712C134.106 33.0925 134.041 33.7121 133.926 34.3251C133.82 34.9062 133.615 35.4696 133.316 35.9954C133.018 36.5079 132.63 36.9757 132.168 37.3814C131.706 37.7953 131.172 38.1406 130.586 38.4041C129.993 38.6702 129.357 38.8555 128.701 38.954C128.003 39.055 127.297 39.1095 126.589 39.1172C126.258 39.124 125.911 39.1279 125.575 39.1279L124.35 39.1299L9.42928 39.1279Z" fill="black"/>
<path d="M32.7966 20.3003C32.8073 19.4657 33.029 18.6473 33.4411 17.9213C33.8531 17.1954 34.442 16.5854 35.1531 16.1483C34.7014 15.5031 34.1055 14.9722 33.4126 14.5976C32.7198 14.2231 31.9492 14.0152 31.162 13.9906C29.4827 13.8143 27.8548 14.9954 26.9991 14.9954C26.1268 14.9954 24.8093 14.0081 23.3906 14.0373C22.4729 14.0669 21.5786 14.3338 20.7947 14.8118C20.0108 15.2899 19.3641 15.9629 18.9177 16.7651C16.9837 20.1136 18.4262 25.0346 20.2789 27.7412C21.2058 29.0666 22.289 30.547 23.7065 30.4945C25.0935 30.437 25.6116 29.61 27.2859 29.61C28.9446 29.61 29.4307 30.4945 30.8769 30.4611C32.3653 30.437 33.303 29.1299 34.1974 27.792C34.8634 26.8476 35.3758 25.8039 35.7158 24.6995C34.8511 24.3338 34.1132 23.7216 33.5941 22.9393C33.0749 22.157 32.7976 21.2392 32.7966 20.3003Z" fill="white"/>
<path d="M30.0649 12.2106C30.8764 11.2364 31.2763 9.9842 31.1794 8.71997C29.9396 8.85019 28.7943 9.44275 27.9719 10.3796C27.5697 10.8372 27.2617 11.3697 27.0655 11.9465C26.8692 12.5232 26.7886 13.133 26.8281 13.741C27.4483 13.7474 28.0618 13.6129 28.6225 13.3479C29.1831 13.0828 29.6763 12.6939 30.0649 12.2106Z" fill="white"/>
<path d="M50.3298 27.1394H45.5964L44.4597 30.4959H42.4548L46.9382 18.0779H49.0212L53.5046 30.4959H51.4656L50.3298 27.1394ZM46.0867 25.5906H49.8387L47.9891 20.1433H47.9373L46.0867 25.5906Z" fill="white"/>
<path d="M63.1873 25.9695C63.1873 28.7829 61.6814 30.5905 59.409 30.5905C58.8333 30.6207 58.2608 30.488 57.757 30.2079C57.2532 29.9278 56.8385 29.5114 56.5603 29.0065H56.5173V33.4909H54.6589V21.4421H56.4578V22.948H56.492C56.7829 22.4455 57.2047 22.0313 57.7123 21.7495C58.2199 21.4676 58.7945 21.3287 59.3748 21.3474C61.6726 21.3474 63.1873 23.1638 63.1873 25.9695ZM61.2771 25.9695C61.2771 24.1365 60.3299 22.9314 58.8845 22.9314C57.4646 22.9314 56.5095 24.1618 56.5095 25.9695C56.5095 27.7937 57.4646 29.0153 58.8845 29.0153C60.3299 29.0153 61.2771 27.8191 61.2771 25.9695Z" fill="white"/>
<path d="M73.1521 25.9697C73.1521 28.7832 71.6463 30.5908 69.3738 30.5908C68.7982 30.6209 68.2257 30.4883 67.7219 30.2081C67.2181 29.928 66.8033 29.5117 66.5252 29.0068H66.4822V33.4912H64.6238V21.4423H66.4226V22.9482H66.4568C66.7477 22.4457 67.1695 22.0315 67.6771 21.7497C68.1847 21.4679 68.7593 21.3289 69.3396 21.3476C71.6375 21.3476 73.1521 23.164 73.1521 25.9697ZM71.242 25.9697C71.242 24.1367 70.2947 22.9316 68.8494 22.9316C67.4295 22.9316 66.4744 24.1621 66.4744 25.9697C66.4744 27.7939 67.4295 29.0156 68.8494 29.0156C70.2947 29.0156 71.242 27.8193 71.242 25.9697H71.242Z" fill="white"/>
<path d="M79.7381 27.0359C79.8758 28.2674 81.0721 29.0759 82.7068 29.0759C84.2732 29.0759 85.4002 28.2674 85.4002 27.157C85.4002 26.1931 84.7205 25.616 83.1111 25.2205L81.5017 24.8328C79.2215 24.282 78.1629 23.2156 78.1629 21.4851C78.1629 19.3425 80.0301 17.8708 82.6814 17.8708C85.3054 17.8708 87.1043 19.3425 87.1648 21.4851H85.2888C85.1765 20.2458 84.1521 19.4978 82.655 19.4978C81.158 19.4978 80.1336 20.2546 80.1336 21.3562C80.1336 22.2341 80.7879 22.7507 82.3884 23.1462L83.7566 23.4822C86.3044 24.0847 87.363 25.1082 87.363 26.9245C87.363 29.2478 85.5125 30.7029 82.5691 30.7029C79.8152 30.7029 77.9558 29.282 77.8357 27.0359L79.7381 27.0359Z" fill="white"/>
<path d="M91.3738 19.2996V21.4421H93.0955V22.9138H91.3738V27.905C91.3738 28.6804 91.7185 29.0417 92.4753 29.0417C92.6797 29.0382 92.8838 29.0238 93.0867 28.9987V30.4616C92.7464 30.5252 92.4005 30.554 92.0544 30.5476C90.2214 30.5476 89.5066 29.8591 89.5066 28.1032V22.9138H88.1902V21.4421H89.5066V19.2996H91.3738Z" fill="white"/>
<path d="M94.0925 25.9695C94.0925 23.1208 95.7703 21.3308 98.3865 21.3308C101.011 21.3308 102.681 23.1208 102.681 25.9695C102.681 28.8259 101.02 30.6081 98.3865 30.6081C95.7536 30.6081 94.0925 28.8259 94.0925 25.9695ZM100.788 25.9695C100.788 24.0154 99.8923 22.8621 98.3865 22.8621C96.8806 22.8621 95.9861 24.0242 95.9861 25.9695C95.9861 27.9314 96.8806 29.0759 98.3865 29.0759C99.8923 29.0759 100.788 27.9314 100.788 25.9695H100.788Z" fill="white"/>
<path d="M104.214 21.4423H105.986V22.9833H106.029C106.149 22.502 106.431 22.0766 106.828 21.7788C107.224 21.4809 107.711 21.3286 108.207 21.3475C108.421 21.3468 108.635 21.37 108.844 21.4169V23.1551C108.573 23.0725 108.291 23.0346 108.009 23.0428C107.739 23.0319 107.469 23.0795 107.22 23.1824C106.97 23.2853 106.745 23.441 106.561 23.6389C106.377 23.8368 106.238 24.0721 106.154 24.3288C106.069 24.5855 106.041 24.8574 106.072 25.1258V30.496H104.214L104.214 21.4423Z" fill="white"/>
<path d="M117.412 27.8367C117.162 29.4802 115.561 30.6081 113.513 30.6081C110.88 30.6081 109.245 28.8435 109.245 26.0124C109.245 23.1726 110.888 21.3308 113.435 21.3308C115.94 21.3308 117.515 23.0515 117.515 25.7966V26.4333H111.121V26.5456C111.091 26.8788 111.133 27.2145 111.243 27.5304C111.353 27.8462 111.53 28.135 111.76 28.3775C111.99 28.6201 112.27 28.8108 112.579 28.9371C112.889 29.0634 113.222 29.1224 113.556 29.1101C113.996 29.1512 114.436 29.0495 114.813 28.8201C115.19 28.5907 115.482 28.2457 115.647 27.8367L117.412 27.8367ZM111.13 25.1345H115.656C115.673 24.8349 115.627 24.5351 115.523 24.2539C115.418 23.9727 115.256 23.7162 115.048 23.5004C114.839 23.2846 114.588 23.1143 114.311 23.0001C114.033 22.8859 113.735 22.8302 113.435 22.8367C113.133 22.8349 112.833 22.893 112.553 23.0078C112.273 23.1225 112.018 23.2916 111.804 23.5052C111.589 23.7188 111.419 23.9728 111.304 24.2524C111.188 24.5321 111.129 24.8319 111.13 25.1345V25.1345Z" fill="white"/>
<path d="M45.8538 8.73065C46.2434 8.70269 46.6343 8.76155 46.9984 8.90298C47.3626 9.04441 47.6907 9.26489 47.9593 9.54852C48.2279 9.83214 48.4302 10.1718 48.5516 10.5431C48.673 10.9144 48.7105 11.308 48.6614 11.6955C48.6614 13.6017 47.6311 14.6975 45.8538 14.6975H43.6985V8.73065H45.8538ZM44.6252 13.8536H45.7502C46.0286 13.8703 46.3073 13.8246 46.5658 13.72C46.8243 13.6154 47.0563 13.4545 47.2448 13.2489C47.4333 13.0433 47.5736 12.7983 47.6554 12.5317C47.7373 12.2651 47.7587 11.9836 47.718 11.7076C47.7557 11.4328 47.7322 11.153 47.6491 10.8884C47.5659 10.6237 47.4253 10.3807 47.2372 10.1768C47.0492 9.97285 46.8183 9.81304 46.5613 9.70881C46.3042 9.60457 46.0272 9.55849 45.7502 9.57386H44.6252V13.8536Z" fill="white"/>
<path d="M49.7083 12.444C49.68 12.1481 49.7138 11.8496 49.8077 11.5675C49.9015 11.2854 50.0533 11.0261 50.2532 10.8061C50.4532 10.5861 50.6969 10.4103 50.9687 10.2901C51.2406 10.1698 51.5346 10.1077 51.8318 10.1077C52.1291 10.1077 52.4231 10.1698 52.6949 10.2901C52.9668 10.4103 53.2105 10.5861 53.4104 10.8061C53.6104 11.0261 53.7621 11.2854 53.856 11.5675C53.9498 11.8496 53.9837 12.1481 53.9554 12.444C53.9842 12.7403 53.9508 13.0392 53.8572 13.3218C53.7636 13.6043 53.6119 13.8641 53.4119 14.0845C53.2119 14.3049 52.968 14.4811 52.6959 14.6016C52.4238 14.7221 52.1294 14.7844 51.8318 14.7844C51.5342 14.7844 51.2399 14.7221 50.9677 14.6016C50.6956 14.4811 50.4517 14.3049 50.2517 14.0845C50.0517 13.8641 49.9001 13.6043 49.8065 13.3218C49.7129 13.0392 49.6794 12.7403 49.7083 12.444ZM53.0413 12.444C53.0413 11.468 52.6028 10.8972 51.8333 10.8972C51.0608 10.8972 50.6263 11.468 50.6263 12.4441C50.6263 13.4279 51.0609 13.9943 51.8333 13.9943C52.6028 13.9943 53.0413 13.424 53.0413 12.444H53.0413Z" fill="white"/>
<path d="M59.6008 14.6975H58.679L57.7483 11.3811H57.678L56.7512 14.6975H55.8381L54.5969 10.1946H55.4983L56.3049 13.6306H56.3713L57.2971 10.1946H58.1497L59.0754 13.6306H59.1458L59.9485 10.1946H60.8372L59.6008 14.6975Z" fill="white"/>
<path d="M61.8811 10.1946H62.7366V10.91H62.803C62.9156 10.653 63.1056 10.4377 63.3465 10.2939C63.5874 10.15 63.8671 10.085 64.1467 10.1077C64.3658 10.0912 64.5858 10.1243 64.7904 10.2044C64.995 10.2845 65.179 10.4096 65.3287 10.5704C65.4784 10.7313 65.5899 10.9237 65.6551 11.1335C65.7203 11.3434 65.7375 11.5652 65.7053 11.7825V14.6975H64.8167V12.0057C64.8167 11.282 64.5022 10.9222 63.845 10.9222C63.6962 10.9152 63.5477 10.9406 63.4097 10.9964C63.2716 11.0522 63.1473 11.1372 63.0451 11.2456C62.943 11.354 62.8655 11.4832 62.818 11.6243C62.7705 11.7655 62.754 11.9152 62.7698 12.0633V14.6976H61.8811L61.8811 10.1946Z" fill="white"/>
<path d="M67.1213 8.43677H68.01V14.6975H67.1213V8.43677Z" fill="white"/>
<path d="M69.2454 12.4441C69.2171 12.1482 69.251 11.8496 69.3448 11.5675C69.4387 11.2854 69.5905 11.0261 69.7904 10.8061C69.9904 10.5861 70.2341 10.4104 70.506 10.2901C70.7779 10.1698 71.0719 10.1077 71.3692 10.1077C71.6664 10.1077 71.9605 10.1698 72.2323 10.2901C72.5042 10.4104 72.7479 10.5861 72.9479 10.8061C73.1478 11.0261 73.2996 11.2854 73.3935 11.5675C73.4874 11.8496 73.5212 12.1482 73.4929 12.4441C73.5217 12.7404 73.4883 13.0393 73.3946 13.3219C73.301 13.6044 73.1493 13.8642 72.9493 14.0846C72.7493 14.305 72.5054 14.4812 72.2333 14.6017C71.9611 14.7222 71.6668 14.7845 71.3692 14.7845C71.0715 14.7845 70.7772 14.7222 70.505 14.6017C70.2329 14.4812 69.989 14.305 69.789 14.0846C69.589 13.8642 69.4373 13.6044 69.3437 13.3219C69.25 13.0393 69.2166 12.7404 69.2454 12.4441ZM72.5784 12.4441C72.5784 11.4681 72.1399 10.8973 71.3704 10.8973C70.5979 10.8973 70.1634 11.4681 70.1634 12.4441C70.1634 13.428 70.5979 13.9944 71.3704 13.9944C72.1399 13.9944 72.5784 13.4241 72.5784 12.4441H72.5784Z" fill="white"/>
<path d="M74.4285 13.4241C74.4285 12.6135 75.032 12.1462 76.1033 12.0798L77.323 12.0095V11.6208C77.323 11.1453 77.0085 10.8767 76.4011 10.8767C75.905 10.8767 75.5613 11.0588 75.4626 11.3772H74.6023C74.6931 10.6038 75.4207 10.1077 76.4421 10.1077C77.571 10.1077 78.2078 10.6697 78.2078 11.6208V14.6975H77.3523V14.0647H77.282C77.1393 14.2917 76.9389 14.4767 76.7012 14.6009C76.4636 14.7252 76.1973 14.7841 75.9294 14.7717C75.7404 14.7914 75.5494 14.7712 75.3686 14.7125C75.1878 14.6538 75.0214 14.5579 74.88 14.4309C74.7385 14.3039 74.6253 14.1487 74.5475 13.9753C74.4698 13.8019 74.4292 13.6141 74.4285 13.4241ZM77.323 13.0393V12.6628L76.2234 12.7331C75.6033 12.7746 75.322 12.9856 75.322 13.3826C75.322 13.7878 75.6736 14.0237 76.157 14.0237C76.2987 14.038 76.4417 14.0237 76.5777 13.9816C76.7137 13.9395 76.8399 13.8705 76.9487 13.7787C77.0575 13.6868 77.1467 13.574 77.211 13.447C77.2753 13.32 77.3134 13.1813 77.323 13.0393Z" fill="white"/>
<path d="M79.3757 12.4441C79.3757 11.0213 80.1072 10.1199 81.2449 10.1199C81.5263 10.1069 81.8056 10.1743 82.0501 10.3142C82.2946 10.4541 82.4943 10.6607 82.6257 10.9099H82.6922V8.43677H83.5808V14.6975H82.7293V13.9861H82.6589C82.5173 14.2336 82.3107 14.4376 82.0615 14.5761C81.8122 14.7146 81.5298 14.7822 81.2449 14.7717C80.0994 14.7718 79.3757 13.8704 79.3757 12.4441ZM80.2937 12.4441C80.2937 13.3992 80.7439 13.9739 81.4969 13.9739C82.2459 13.9739 82.7088 13.3909 82.7088 12.448C82.7088 11.5095 82.241 10.9182 81.4969 10.9182C80.7488 10.9182 80.2937 11.4968 80.2937 12.4441H80.2937Z" fill="white"/>
<path d="M87.2576 12.444C87.2293 12.1481 87.2631 11.8496 87.357 11.5675C87.4508 11.2854 87.6026 11.0261 87.8025 10.8061C88.0025 10.5861 88.2462 10.4103 88.518 10.2901C88.7899 10.1698 89.0839 10.1077 89.3811 10.1077C89.6784 10.1077 89.9724 10.1698 90.2442 10.2901C90.5161 10.4103 90.7598 10.5861 90.9597 10.8061C91.1597 11.0261 91.3114 11.2854 91.4053 11.5675C91.4991 11.8496 91.533 12.1481 91.5047 12.444C91.5335 12.7403 91.5001 13.0392 91.4065 13.3218C91.3129 13.6043 91.1612 13.8641 90.9612 14.0845C90.7612 14.3049 90.5173 14.4811 90.2452 14.6016C89.9731 14.7221 89.6788 14.7844 89.3811 14.7844C89.0835 14.7844 88.7892 14.7221 88.5171 14.6016C88.2449 14.4811 88.001 14.3049 87.801 14.0845C87.6011 13.8641 87.4494 13.6043 87.3558 13.3218C87.2622 13.0392 87.2288 12.7403 87.2576 12.444ZM90.5906 12.444C90.5906 11.468 90.1521 10.8972 89.3826 10.8972C88.6101 10.8972 88.1756 11.468 88.1756 12.4441C88.1756 13.4279 88.6102 13.9943 89.3826 13.9943C90.1521 13.9943 90.5906 13.424 90.5906 12.444Z" fill="white"/>
<path d="M92.697 10.1946H93.5525V10.91H93.6189C93.7316 10.653 93.9216 10.4377 94.1624 10.2939C94.4033 10.15 94.683 10.085 94.9627 10.1077C95.1818 10.0912 95.4018 10.1243 95.6063 10.2044C95.8109 10.2845 95.9949 10.4096 96.1446 10.5704C96.2943 10.7313 96.4058 10.9237 96.4711 11.1335C96.5363 11.3434 96.5534 11.5652 96.5212 11.7825V14.6975H95.6326V12.0057C95.6326 11.282 95.3181 10.9222 94.6609 10.9222C94.5121 10.9152 94.3636 10.9406 94.2256 10.9964C94.0875 11.0522 93.9632 11.1372 93.861 11.2456C93.7589 11.354 93.6814 11.4832 93.6339 11.6243C93.5864 11.7655 93.5699 11.9152 93.5857 12.0633V14.6976H92.697V10.1946Z" fill="white"/>
<path d="M101.543 9.07349V10.2151H102.518V10.9636H101.543V13.2791C101.543 13.7507 101.737 13.9573 102.179 13.9573C102.293 13.9569 102.406 13.9501 102.518 13.9368V14.677C102.359 14.7055 102.197 14.7207 102.035 14.7224C101.047 14.7224 100.653 14.3747 100.653 13.5066V10.9636H99.9382V10.215H100.653V9.07349H101.543Z" fill="white"/>
<path d="M103.732 8.43677H104.613V10.9182H104.683C104.801 10.6589 104.997 10.4423 105.242 10.298C105.488 10.1536 105.772 10.0885 106.056 10.1116C106.274 10.0997 106.492 10.1361 106.694 10.2181C106.897 10.3002 107.078 10.4259 107.227 10.5862C107.375 10.7465 107.486 10.9376 107.551 11.1457C107.617 11.3539 107.636 11.5739 107.607 11.7903V14.6975H106.718V12.0095C106.718 11.2903 106.383 10.926 105.755 10.926C105.602 10.9135 105.448 10.9345 105.305 10.9875C105.161 11.0406 105.03 11.1244 104.922 11.2332C104.814 11.3419 104.731 11.4729 104.679 11.6171C104.627 11.7612 104.607 11.915 104.621 12.0676V14.6975H103.732L103.732 8.43677Z" fill="white"/>
<path d="M112.789 13.4818C112.668 13.8933 112.406 14.2493 112.05 14.4874C111.693 14.7256 111.264 14.8307 110.838 14.7845C110.541 14.7923 110.246 14.7355 109.974 14.618C109.701 14.5004 109.457 14.325 109.26 14.1039C109.062 13.8827 108.914 13.6212 108.827 13.3374C108.741 13.0535 108.717 12.7543 108.757 12.4603C108.718 12.1654 108.742 11.8655 108.829 11.5808C108.915 11.2961 109.062 11.0334 109.259 10.8103C109.456 10.5872 109.698 10.409 109.97 10.2878C110.242 10.1666 110.536 10.1052 110.834 10.1077C112.087 10.1077 112.842 10.9637 112.842 12.3777V12.6878H109.663V12.7376C109.649 12.9029 109.67 13.0692 109.724 13.226C109.778 13.3827 109.864 13.5264 109.977 13.6479C110.09 13.7693 110.227 13.8658 110.379 13.9312C110.532 13.9966 110.696 14.0295 110.862 14.0276C111.075 14.0531 111.29 14.0149 111.481 13.9177C111.671 13.8205 111.829 13.6687 111.933 13.4817L112.789 13.4818ZM109.663 12.0306H111.937C111.948 11.8795 111.928 11.7277 111.877 11.5849C111.826 11.4422 111.746 11.3117 111.641 11.2019C111.537 11.092 111.411 11.0052 111.271 10.9471C111.131 10.8889 110.98 10.8606 110.829 10.8641C110.675 10.8622 110.523 10.891 110.38 10.949C110.238 11.0069 110.108 11.0928 110 11.2015C109.891 11.3102 109.805 11.4396 109.747 11.582C109.69 11.7244 109.661 11.8769 109.663 12.0306H109.663Z" fill="white"/>
</svg>
