<svg width="135" height="40" viewBox="0 0 135 40" fill="none" xmlns="http://www.w3.org/2000/svg">
<path d="M129.999 0H4.99998C2.23857 0 0 2.23857 0 4.99998V34.9998C0 37.7612 2.23857 39.9998 4.99998 39.9998H129.999C132.761 39.9998 134.999 37.7612 134.999 34.9998V4.99998C134.999 2.23857 132.761 0 129.999 0Z" fill="black"/>
<path d="M129.999 0.80004C131.113 0.801327 132.18 1.24427 132.968 2.03168C133.755 2.8191 134.198 3.88668 134.199 5.00022V35.0001C134.198 36.1136 133.755 37.1812 132.968 37.9686C132.18 38.756 131.113 39.1989 129.999 39.2003H4.99998C3.88643 39.199 2.81887 38.756 2.03149 37.9686C1.24411 37.1812 0.801227 36.1136 0.799996 35.0001V5.00022C0.801208 3.88667 1.24409 2.81907 2.03147 2.03165C2.81885 1.24424 3.88643 0.801305 4.99998 0.80004H129.999ZM129.999 0.000244141H4.99998C3.67509 0.00412222 2.40558 0.532149 1.46874 1.46899C0.531905 2.40582 0.00387808 3.67534 0 5.00022L0 35.0001C0.00387808 36.325 0.531905 37.5945 1.46874 38.5313C2.40558 39.4681 3.67509 39.9962 4.99998 40H129.999C131.324 39.9962 132.594 39.4681 133.531 38.5313C134.467 37.5945 134.995 36.325 134.999 35.0001V5.00022C134.995 3.67534 134.467 2.40582 133.531 1.46899C132.594 0.532149 131.324 0.00412222 129.999 0.000244141Z" fill="#1D1D1D"/>
<path d="M47.4182 10.2433C47.4364 10.6103 47.3797 10.9771 47.2516 11.3214C47.1235 11.6657 46.9267 11.9804 46.673 12.2462C46.3888 12.541 46.0456 12.7724 45.6658 12.9254C45.286 13.0783 44.8781 13.1494 44.469 13.1339C44.0572 13.1376 43.6488 13.0589 43.2679 12.9025C42.8869 12.7461 42.5411 12.5152 42.2507 12.2232C41.9603 11.9313 41.7312 11.5842 41.5768 11.2024C41.4225 10.8207 41.346 10.4119 41.3519 10.0001C41.346 9.58836 41.4225 9.17958 41.5769 8.7978C41.7313 8.41602 41.9604 8.06894 42.2508 7.77695C42.5412 7.48496 42.887 7.25395 43.2679 7.09748C43.6488 6.94102 44.0572 6.86226 44.469 6.86584C44.8923 6.86456 45.3115 6.95016 45.7005 7.11734C46.0617 7.26378 46.3833 7.49348 46.6389 7.78773L46.1116 8.31553C45.9106 8.07898 45.6579 7.89177 45.3731 7.76834C45.0883 7.64491 44.779 7.58856 44.469 7.60364C44.1569 7.60202 43.8477 7.66341 43.5599 7.78412C43.2721 7.90483 43.0116 8.08238 42.7941 8.30614C42.5765 8.5299 42.4064 8.79526 42.2938 9.08634C42.1812 9.37741 42.1286 9.68821 42.139 10.0001C42.1315 10.4673 42.263 10.9262 42.5167 11.3186C42.7704 11.711 43.1349 12.0192 43.564 12.2041C43.9931 12.3891 44.4674 12.4424 44.9269 12.3574C45.3863 12.2724 45.8102 12.0529 46.1448 11.7267C46.4526 11.395 46.6311 10.9636 46.6477 10.5113H44.469V9.79062H47.3762C47.4037 9.93997 47.4178 10.0915 47.4182 10.2433Z" fill="white" stroke="white" stroke-width="0.2" stroke-miterlimit="10"/>
<path d="M52.0275 7.7373H49.2952V9.63959H51.759V10.3604H49.2952V12.2627H52.0275V13H48.5247V7H52.0275V7.7373Z" fill="white" stroke="white" stroke-width="0.2" stroke-miterlimit="10"/>
<path d="M55.2783 13H54.5068V7.7373H52.8311V7H56.9541V7.7373H55.2783V13Z" fill="white" stroke="white" stroke-width="0.2" stroke-miterlimit="10"/>
<path d="M59.9377 13V7H60.7082V13H59.9377Z" fill="white" stroke="white" stroke-width="0.2" stroke-miterlimit="10"/>
<path d="M64.1281 13H63.3566V7.7373H61.6809V7H65.8039V7.7373H64.1281V13Z" fill="white" stroke="white" stroke-width="0.2" stroke-miterlimit="10"/>
<path d="M73.6089 12.2246C73.0249 12.8068 72.2339 13.1338 71.4092 13.1338C70.5846 13.1338 69.7935 12.8068 69.2095 12.2246C68.9206 11.932 68.6935 11.5842 68.5417 11.2021C68.3898 10.8199 68.3164 10.4111 68.3257 10C68.3164 9.58889 68.3898 9.1801 68.5417 8.79794C68.6935 8.41578 68.9206 8.06804 69.2095 7.77542C69.4982 7.48669 69.841 7.25772 70.2182 7.10162C70.5955 6.94552 70.9998 6.86536 71.4081 6.86572C71.8164 6.86609 72.2205 6.94697 72.5975 7.10373C72.9745 7.2605 73.3169 7.49007 73.605 7.77932C73.8941 8.07117 74.1217 8.41813 74.2742 8.7996C74.4267 9.18106 74.501 9.58927 74.4927 10C74.5018 10.4111 74.4282 10.8198 74.2764 11.2019C74.1246 11.5841 73.8976 11.9318 73.6089 12.2246ZM69.7788 11.7222C70.2114 12.154 70.7976 12.3965 71.4087 12.3965C72.0199 12.3965 72.6061 12.154 73.0386 11.7222C73.2604 11.4951 73.4339 11.2254 73.5485 10.9294C73.6631 10.6334 73.7166 10.3172 73.7056 10C73.7166 9.68277 73.6631 9.36659 73.5485 9.07059C73.4339 8.77459 73.2604 8.5049 73.0386 8.27782C72.6061 7.84602 72.0199 7.60351 71.4087 7.60351C70.7976 7.60351 70.2114 7.84602 69.7788 8.27782C69.5573 8.50508 69.3842 8.77482 69.2697 9.0708C69.1552 9.36677 69.1019 9.68286 69.1128 10C69.1019 10.3172 69.1552 10.6332 69.2697 10.9292C69.3842 11.2252 69.5573 11.4949 69.7788 11.7222Z" fill="white" stroke="white" stroke-width="0.2" stroke-miterlimit="10"/>
<path d="M75.5747 13V7H76.5132L79.4292 11.6675H79.4624L79.4292 10.5112V7H80.2007V13H79.396L76.3452 8.10639H76.312L76.3452 9.26269V13H75.5747Z" fill="white" stroke="white" stroke-width="0.2" stroke-miterlimit="10"/>
<path d="M68.1355 21.7517C67.295 21.7549 66.4743 22.007 65.777 22.4763C65.0797 22.9456 64.537 23.6109 64.2176 24.3884C63.8982 25.1658 63.8162 26.0205 63.9822 26.8445C64.1481 27.6684 64.5544 28.4248 65.1499 29.018C65.7454 29.6112 66.5032 30.0146 67.3278 30.1774C68.1524 30.3402 69.0068 30.2551 69.783 29.9327C70.5592 29.6103 71.2225 29.0651 71.6891 28.366C72.1558 27.6669 72.4048 26.8453 72.4048 26.0048C72.413 25.4426 72.3081 24.8845 72.0963 24.3637C71.8845 23.8429 71.57 23.37 71.1717 22.9732C70.7734 22.5764 70.2993 22.2638 69.7777 22.0539C69.2561 21.8441 68.6976 21.7413 68.1355 21.7517ZM68.1355 28.5825C67.6179 28.6194 67.1011 28.4996 66.6525 28.2387C66.204 27.9778 65.8443 27.5879 65.6204 27.1197C65.3965 26.6516 65.3188 26.1269 65.3973 25.6139C65.4758 25.1009 65.7069 24.6235 66.0605 24.2437C66.4142 23.864 66.874 23.5995 67.3801 23.4847C67.8861 23.3699 68.4151 23.4101 68.898 23.6001C69.3808 23.7901 69.7953 24.1211 70.0875 24.55C70.3796 24.9789 70.5359 25.4858 70.5359 26.0048C70.5516 26.3326 70.5016 26.6603 70.3887 26.9685C70.2759 27.2767 70.1025 27.5592 69.8788 27.7994C69.6552 28.0396 69.3857 28.2326 69.0863 28.3671C68.7869 28.5016 68.4636 28.5748 68.1355 28.5825ZM58.8221 21.7517C57.9816 21.7548 57.1609 22.007 56.4636 22.4763C55.7663 22.9455 55.2236 23.6109 54.9042 24.3883C54.5847 25.1658 54.5028 26.0204 54.6687 26.8444C54.8346 27.6684 55.241 28.4247 55.8364 29.0179C56.4319 29.6111 57.1897 30.0146 58.0143 30.1774C58.8389 30.3402 59.6933 30.2551 60.4695 29.9327C61.2457 29.6103 61.909 29.0651 62.3757 28.366C62.8423 27.667 63.0913 26.8453 63.0913 26.0048C63.0996 25.4426 62.9947 24.8845 62.7828 24.3637C62.571 23.8429 62.2566 23.37 61.8583 22.9732C61.46 22.5764 60.9859 22.2638 60.4643 22.0539C59.9427 21.8441 59.3843 21.7413 58.8221 21.7517ZM58.8221 28.5825C58.3045 28.6194 57.7878 28.4996 57.3392 28.2387C56.8906 27.9778 56.5309 27.5879 56.3071 27.1197C56.0832 26.6516 56.0054 26.1269 56.0839 25.6139C56.1624 25.1009 56.3935 24.6235 56.7472 24.2437C57.1008 23.864 57.5606 23.5995 58.0667 23.4847C58.5728 23.3699 59.1017 23.4101 59.5846 23.6001C60.0675 23.7901 60.482 24.1211 60.7741 24.55C61.0663 24.9789 61.2225 25.4858 61.2225 26.0048C61.2382 26.3326 61.1882 26.6603 61.0754 26.9685C60.9625 27.2767 60.7892 27.5592 60.5655 27.7994C60.3418 28.0396 60.0724 28.2326 59.7729 28.3671C59.4735 28.5016 59.1503 28.5748 58.8221 28.5825ZM47.7434 23.0567V24.861H52.0611C51.9988 25.7073 51.6525 26.5077 51.0783 27.1326C50.6456 27.5736 50.1253 27.919 49.5509 28.1465C48.9764 28.3741 48.3607 28.4787 47.7434 28.4536C46.4814 28.4365 45.2768 27.9231 44.3904 27.0247C43.504 26.1262 43.0071 24.9148 43.0071 23.6527C43.0071 22.3905 43.504 21.1792 44.3904 20.2807C45.2768 19.3822 46.4814 18.8689 47.7434 18.8518C48.9556 18.836 50.1251 19.2991 50.9978 20.1406L52.2705 18.8679C51.675 18.2784 50.9679 17.8137 50.1905 17.5011C49.4131 17.1885 48.5812 17.0343 47.7434 17.0474C46.8679 17.0347 45.9986 17.1961 45.186 17.5223C44.3735 17.8485 43.6339 18.3331 43.0102 18.9477C42.3866 19.5623 41.8914 20.2948 41.5533 21.1025C41.2153 21.9102 41.0413 22.7771 41.0413 23.6527C41.0413 24.5283 41.2153 25.3951 41.5533 26.2029C41.8914 27.0106 42.3866 27.7431 43.0102 28.3577C43.6339 28.9723 44.3735 29.4568 45.186 29.783C45.9986 30.1093 46.8679 30.2707 47.7434 30.2579C48.5988 30.2934 49.4521 30.1466 50.2464 29.8272C51.0408 29.5077 51.7582 29.0231 52.351 28.4053C53.4034 27.2565 53.9643 25.7415 53.9138 24.1844C53.9179 23.8062 53.8855 23.4286 53.817 23.0567H47.7434ZM93.0515 24.4582C92.7959 23.6878 92.3093 23.0148 91.6579 22.5306C91.0065 22.0464 90.2218 21.7744 89.4105 21.7517C88.864 21.7551 88.3239 21.8692 87.8228 22.0873C87.3218 22.3053 86.8701 22.6227 86.4951 23.0202C86.1202 23.4178 85.8297 23.8872 85.6413 24.4002C85.453 24.9132 85.3706 25.459 85.3991 26.0048C85.3868 26.5639 85.4873 27.1199 85.6947 27.6393C85.902 28.1588 86.2119 28.6311 86.6059 29.0281C86.9999 29.4251 87.4699 29.7386 87.9877 29.9499C88.5056 30.1612 89.0607 30.266 89.62 30.2579C90.3206 30.2618 91.0113 30.0916 91.6299 29.7626C92.2485 29.4336 92.7757 28.9562 93.1642 28.3731L91.7143 27.4065C91.4971 27.7672 91.1898 28.0653 90.8227 28.2714C90.4555 28.4776 90.0411 28.5848 89.62 28.5825C89.1867 28.599 88.7584 28.485 88.3907 28.2552C88.023 28.0254 87.7328 27.6904 87.5578 27.2937L93.2449 24.9416L93.0515 24.4582ZM87.2518 25.876C87.2318 25.5664 87.2737 25.256 87.3751 24.9628C87.4765 24.6696 87.6353 24.3996 87.8423 24.1686C88.0494 23.9376 88.3004 23.7502 88.5807 23.6173C88.861 23.4845 89.165 23.4089 89.4749 23.395C89.7976 23.3737 90.1194 23.448 90.4001 23.6084C90.6809 23.7689 90.9082 24.0084 91.0538 24.2972L87.2518 25.876ZM82.628 30.0001H84.4968V17.4986H82.628V30.0001ZM79.567 22.7022H79.5026C79.2185 22.3935 78.8718 22.149 78.4856 21.9851C78.0994 21.8212 77.6827 21.7416 77.2633 21.7517C76.1666 21.7984 75.1303 22.2669 74.3708 23.0594C73.6113 23.8519 73.1873 24.9071 73.1873 26.0048C73.1873 27.1025 73.6113 28.1578 74.3708 28.9503C75.1303 29.7428 76.1666 30.2113 77.2633 30.2579C77.6843 30.2691 78.1028 30.1885 78.4895 30.0216C78.8763 29.8546 79.222 29.6054 79.5026 29.2913H79.567V29.9035C79.567 31.5307 78.6971 32.4006 77.2954 32.4006C76.8283 32.3895 76.3751 32.2395 75.9935 31.9698C75.6119 31.7001 75.3193 31.3229 75.1529 30.8862L73.5257 31.5629C73.8323 32.3096 74.355 32.9477 75.0266 33.3954C75.6982 33.8432 76.4883 34.0802 77.2954 34.0761C79.4865 34.0761 81.3392 32.7873 81.3392 29.6457V22.0094H79.567V22.7022ZM77.4244 28.5825C76.7785 28.5277 76.1767 28.2324 75.7381 27.755C75.2995 27.2777 75.0561 26.6531 75.0561 26.0048C75.0561 25.3566 75.2995 24.7319 75.7381 24.2546C76.1767 23.7772 76.7785 23.4819 77.4244 23.4272C77.7458 23.4429 78.0607 23.5231 78.3504 23.6631C78.6401 23.8031 78.8986 24 79.1106 24.242C79.3226 24.484 79.4836 24.7663 79.5842 25.0719C79.6848 25.3775 79.7228 25.7002 79.6959 26.0209C79.7211 26.3395 79.6817 26.6599 79.5801 26.963C79.4785 27.266 79.3169 27.5455 79.1048 27.7846C78.8928 28.0238 78.6347 28.2177 78.3459 28.3548C78.0572 28.4918 77.7438 28.5693 77.4244 28.5825ZM101.805 17.4988H97.3342V30.0001H99.1998V25.2638H101.805C102.333 25.2927 102.861 25.2137 103.357 25.0317C103.854 24.8496 104.307 24.5684 104.691 24.205C105.075 23.8416 105.381 23.4038 105.59 22.9183C105.799 22.4328 105.906 21.9098 105.906 21.3813C105.906 20.8527 105.799 20.3297 105.59 19.8442C105.381 19.3588 105.075 18.9209 104.691 18.5576C104.307 18.1942 103.854 17.9129 103.357 17.7309C102.861 17.5488 102.333 17.4699 101.805 17.4988ZM101.854 23.524H99.1998V19.2387H101.854C102.139 19.2328 102.422 19.2838 102.687 19.3889C102.952 19.4939 103.194 19.6508 103.398 19.8503C103.601 20.0499 103.763 20.2881 103.874 20.551C103.984 20.8139 104.041 21.0962 104.041 21.3813C104.041 21.6665 103.984 21.9488 103.874 22.2117C103.763 22.4746 103.601 22.7128 103.398 22.9124C103.194 23.1119 102.952 23.2688 102.687 23.3738C102.422 23.4788 102.139 23.5299 101.854 23.524ZM113.385 21.7287C112.704 21.6889 112.026 21.8488 111.435 22.1888C110.844 22.5288 110.364 23.0341 110.056 23.6426L111.712 24.3342C111.877 24.0321 112.125 23.7846 112.428 23.6217C112.731 23.4589 113.075 23.3879 113.417 23.4174C113.891 23.3712 114.363 23.5145 114.731 23.816C115.099 24.1175 115.332 24.5525 115.379 25.0257V25.1544C114.78 24.836 114.112 24.6703 113.433 24.6719C111.648 24.6719 109.831 25.653 109.831 27.4865C109.848 27.8729 109.943 28.2518 110.11 28.6009C110.276 28.95 110.511 29.262 110.801 29.5186C111.09 29.7751 111.428 29.9708 111.795 30.0942C112.161 30.2175 112.549 30.266 112.935 30.2366C113.405 30.2643 113.873 30.1655 114.292 29.9505C114.711 29.7355 115.064 29.4123 115.315 29.0143H115.379V29.9793H117.181V25.1866C117.181 22.9671 115.524 21.7287 113.385 21.7287ZM113.16 28.5801C112.549 28.5801 111.696 28.2746 111.696 27.5186C111.696 26.5537 112.758 26.1837 113.675 26.1837C114.27 26.1678 114.859 26.3122 115.379 26.6019C115.311 27.1441 115.048 27.6432 114.64 28.0068C114.232 28.3705 113.706 28.5741 113.16 28.5801ZM123.743 22.0021L121.604 27.4221H121.539L119.32 22.0021H117.309L120.639 29.5772L118.741 33.791H120.687L125.817 22.0021H123.743ZM106.936 30.0001H108.801V17.4988H106.936V30.0001Z" fill="white"/>
<path d="M10.4352 7.53793C10.1073 7.93 9.9417 8.43262 9.97238 8.94282V31.0588C9.94161 31.569 10.1072 32.0717 10.4352 32.4637L10.5092 32.5358L22.8981 20.147V19.8547L10.5092 7.46533L10.4352 7.53793Z" fill="url(#paint0_linear_302_184)"/>
<path d="M27.0276 24.2784L22.8982 20.147V19.8547L27.0286 15.7244L27.1217 15.7775L32.0144 18.5576C33.412 19.3515 33.412 20.6507 32.0144 21.4452L27.1217 24.2253L27.0276 24.2784Z" fill="url(#paint1_linear_302_184)"/>
<path d="M27.1217 24.2249L22.8982 20.001L10.4353 32.4638C10.7201 32.715 11.0837 32.8586 11.4633 32.8698C11.8428 32.881 12.2143 32.7591 12.5134 32.5252L27.1217 24.2249Z" fill="url(#paint2_linear_302_184)"/>
<path d="M27.1217 15.777L12.5134 7.47666C12.2143 7.24275 11.8428 7.12084 11.4633 7.13206C11.0837 7.14327 10.7201 7.2869 10.4353 7.53805L22.8982 20.001L27.1217 15.777Z" fill="url(#paint3_linear_302_184)"/>
<path opacity="0.2" d="M27.0286 24.1318L12.5134 32.3791C12.2258 32.598 11.8748 32.7175 11.5134 32.7194C11.152 32.7213 10.7997 32.6056 10.5098 32.3898L10.4353 32.4643L10.5093 32.5364L10.5098 32.5359C10.7997 32.7519 11.1519 32.8676 11.5134 32.8657C11.8748 32.8638 12.2259 32.7442 12.5134 32.5252L27.1217 24.2248L27.0286 24.1318Z" fill="#1D1D1D"/>
<path opacity="0.12" d="M10.4352 32.3182C10.1073 31.9261 9.94171 31.4235 9.97236 30.9133V31.0594C9.94169 31.5696 10.1073 32.0722 10.4352 32.4643L10.5097 32.3898L10.4352 32.3182Z" fill="#1D1D1D"/>
<path opacity="0.12" d="M32.0144 21.2988L27.0286 24.1319L27.1217 24.2249L32.0144 21.4449C32.3022 21.32 32.5513 21.1202 32.7357 20.8663C32.9201 20.6124 33.033 20.3138 33.0627 20.0015C33.0009 20.2843 32.8739 20.5488 32.6919 20.774C32.51 20.9992 32.278 21.1789 32.0144 21.2988Z" fill="#1D1D1D"/>
<path opacity="0.25" d="M12.5133 7.62334L32.0144 18.7033C32.2781 18.8231 32.5101 19.0029 32.6921 19.2282C32.8741 19.4535 33.001 19.7181 33.0627 20.0011C33.0332 19.6886 32.9203 19.3898 32.7359 19.1358C32.5515 18.8819 32.3024 18.682 32.0144 18.5572L12.5133 7.47724C11.1157 6.68315 9.97241 7.34274 9.97241 8.94353V9.08963C9.97241 7.48894 11.1157 6.82934 12.5133 7.62334Z" fill="white"/>
<defs>
<linearGradient id="paint0_linear_302_184" x1="21.7995" y1="8.70964" x2="5.01714" y2="25.492" gradientUnits="userSpaceOnUse">
<stop stop-color="#00A0FF"/>
<stop offset="0.00657" stop-color="#00A1FF"/>
<stop offset="0.2601" stop-color="#00BEFF"/>
<stop offset="0.5122" stop-color="#00D2FF"/>
<stop offset="0.7604" stop-color="#00DFFF"/>
<stop offset="1" stop-color="#00E3FF"/>
</linearGradient>
<linearGradient id="paint1_linear_302_184" x1="33.8341" y1="20.0014" x2="9.63734" y2="20.0014" gradientUnits="userSpaceOnUse">
<stop stop-color="#FFE000"/>
<stop offset="0.4087" stop-color="#FFBD00"/>
<stop offset="0.7754" stop-color="#FFA500"/>
<stop offset="1" stop-color="#FF9C00"/>
</linearGradient>
<linearGradient id="paint2_linear_302_184" x1="24.8268" y1="22.2961" x2="2.06861" y2="45.0542" gradientUnits="userSpaceOnUse">
<stop stop-color="#FF3A44"/>
<stop offset="1" stop-color="#C31162"/>
</linearGradient>
<linearGradient id="paint3_linear_302_184" x1="7.29725" y1="0.176272" x2="17.4597" y2="10.3387" gradientUnits="userSpaceOnUse">
<stop stop-color="#32A071"/>
<stop offset="0.0685" stop-color="#2DA771"/>
<stop offset="0.4762" stop-color="#15CF74"/>
<stop offset="0.8009" stop-color="#06E775"/>
<stop offset="1" stop-color="#00F076"/>
</linearGradient>
</defs>
</svg>
